# xmcd CD database file
# Generated: Tue Jan 13 22:27:10 2004 by KSCD
# 
# Track frame offsets:
#       150
#       11450
#       28952
#       39677
#       59022
#       85947
#       91294
#       110379
#       145019
#       166158
#       197546
#       206700
#
# Disc length: 2997 seconds
#
# Revision: 1
# Processed by: cddbd v1.4PL0 Copyright (c) Steve Scherf et al.
# Submitted via: Kscd 1.3.3
#
DISCID=9f0bb30c
DTITLE=RAQ - Carbohydrates
DYEAR=1900
DGENRE=
TTITLE0=Shirley Be A Drooler
TTITLE1=The Down Low
TTITLE2=Beauregard
TTITLE3=Georgia
TTITLE4=Brother From Another Mother
TTITLE5=The Hunter Becomes The Hunted
TTITLE6=Circumstance
TTITLE7=Carbohydrates Are The Enemy
TTITLE8=Sweet Cream Butter
TTITLE9=Hannah Can
TTITLE10=Barometric Weather
TTITLE11=The Anthem Of Beauregard
EXTD=
EXTT0=
EXTT1=
EXTT2=
EXTT3=
EXTT4=
EXTT5=
EXTT6=
EXTT7=
EXTT8=
EXTT9=
EXTT10=
EXTT11=
PLAYORDER=
